<svg version="1" xmlns="http://www.w3.org/2000/svg" width="933.333" height="933.333" viewBox="0 0 700.000000 700.000000"><path d="M176.8 224.5c-.2.1-2.3.5-4.8.9-8.8 1.1-10.6 1.5-19.1 4-32.9 9.6-61.1 33.4-76.5 64.7-5.8 11.7-9.4 23.1-12.2 38.9l-.8 4.5h-9.1c-5.1 0-9.5.4-9.9.8-.4.3-.7 5.9-.7 12.3l-.1 11.7 9.9.1 9.9.1 1.3 7.5c6.6 39.4 32 74.3 66.8 91.8 12.7 6.4 18.4 8.5 31.5 11.3 7.7 1.7 10.2 2 22 2.4 14.2.6 28.9-1.4 42-5.7 9.4-3 24.2-9.6 24.8-11.1.2-.4.8-.7 1.4-.7 2.6 0 19.2-13.1 26.6-20.9 21.5-22.9 33.2-50.2 34.8-80.9.7-13.1 3.1-18.9 10.6-25.7 15-13.5 36.1-13.1 50.6.9 6.7 6.4 8.9 12.1 9.6 25.3.3 6.1.8 11.8 1.1 12.5.2.7.6 2.6.8 4.3 1.6 11.5 8.3 28.7 16 41.5 18.3 30.2 48.9 51.6 83.6 58.6 8.6 1.8 32.3 2.6 39.7 1.4 14.3-2.4 21.2-4.2 31.3-8.1 4.2-1.7 11.7-5.5 16.8-8.5 17.3-10.2 29.3-21.7 40.7-38.9 10.5-15.9 15.2-27.3 19.1-46l2.2-11 9.7-.3c5.3-.1 9.6-.6 9.7-1 .4-4.5.2-21.7-.3-22.5-.5-.8-4.1-1.2-9.9-1.2h-9.3l-2.2-11c-2.7-13.5-4.2-18.2-10.3-31-7.1-14.9-13.7-24.1-25.5-35.6-18.3-18-42.9-30.3-67.9-34.3-8.8-1.3-33.5-1.5-38.7-.2-1.4.4-4.1.9-6 1.2-6.3 1-20.3 5.6-28 9.2-29.8 14-53.9 40.1-64.5 69.8-1.6 4.3-3.2 8.3-3.6 8.8-.5.5-1.9-.1-3.4-1.6-7.1-7.1-23-12.8-36-12.9-13.2-.1-28.4 5.2-37.4 13-2.3 2-4.1 2-4.1-.1 0-2.4-7.5-19.7-11.6-26.5-18.5-31.3-47.9-52.3-83.9-59.9-6.8-1.4-35.5-2.9-36.7-1.9zM526 246.1c35.4 4.3 68.2 29.8 82.3 63.9 23.2 56.3-6.8 121.2-64.8 140.1-21 6.8-48.4 6.3-68.5-1.4-16.2-6.1-26.3-12.8-39-25.6-20-20.4-29.9-44.6-29.8-73.5.1-19 3.5-32.5 12.4-49.6 15.8-30.2 49-52 83.4-54.8 10.5-.8 10.5-.8 24 .9zm-319 .3c36.2 6 67.3 32 80.6 67.3 4.8 12.6 6.4 23.3 6 38.8-.4 14.9-.6 16.2-3.8 27-8 27.3-28.2 51.7-53.3 64.2-7.4 3.8-19.6 8.2-24.4 8.9-2 .3-5.4 1-7.6 1.5-11.2 2.5-35 .3-49-4.4-21.1-7.2-41.9-23.1-53.7-40.9-16.7-25.1-22.2-56.2-14.9-84.8 10-39 43.4-70.3 82.7-77.4 10.3-1.9 26.7-1.9 37.4-.2z"/></svg>